#!OML:ASF I:\golf\golf\golf 2\Subject 1\2002-09-07\Subject1.ASF
:FULLY-SPECIFIED
:DEGREES
130
root 0.0353206 18.0199 -7.98505 10.392 -5.94246 -3.33374
lowerback -1.02272 1.13318 -2.52492
upperback 2.23941 1.46546 4.40271
thorax 2.70688 0.625452 6.03952
lowerneck -14.4402 2.05145 1.71603
upperneck 41.7623 6.15497 -8.22494
head 18.5929 1.62704 -3.0397
rclavicle 2.98177e-015 0
rhumerus -26.0606 0.105332 -81.852
rradius 28.2502
rwrist -9.76601
rhand -18.7911 8.58741
rfingers 7.12502
rthumb 7.50679 -21.2594
lclavicle 2.98177e-015 0
lhumerus -29.6509 -7.11579 89.8767
lradius 40.161
lwrist 6.59266
lhand -11.2215 33.9203
lfingers 7.12502
lthumb 14.8071 63.3713
rfemur -14.0379 1.51059 26.1611
rtibia 26.002
rfoot -16.4206 -6.11094
rtoes 1.58608
lfemur -27.3679 8.90024 -11.188
ltibia 49.5714
lfoot -6.47792 -10.8795
ltoes -17.8106
131
root 0.0257288 18.0217 -7.9802 10.3759 -5.79285 -3.41739
lowerback -0.747343 1.16876 -2.30179
upperback 2.25561 1.50741 4.35776
thorax 2.56906 0.654767 5.85757
lowerneck -14.391 1.996 1.76458
upperneck 41.8059 6.02762 -8.16013
head 18.5902 1.59425 -3.044
rclavicle -2.04748e-014 1.03368e-014
rhumerus -26.0291 0.044323 -81.9056
rradius 28.2389
rwrist -9.68418
rhand -18.9657 8.51258
rfingers 7.12502
rthumb 7.3383 -21.3402
lclavicle -2.04748e-014 1.03368e-014
lhumerus -29.7712 -7.99088 90.0727
lradius 40.6413
lwrist 6.28404
lhand -11.4272 33.5743
lfingers 7.12502
lthumb 14.6089 63.0398
rfemur -13.9257 1.31026 26.3064
rtibia 25.8523
rfoot -16.371 -5.97329
rtoes 1.91081
lfemur -28.1536 9.00161 -10.9498
ltibia 50.5846
lfoot -6.11068 -11.3456
ltoes -20.471
132
root 0.0161998 18.0251 -7.97202 10.294 -5.68792 -3.53225
lowerback -0.406366 1.19435 -2.10571
upperback 2.30764 1.53569 4.36346
thorax 2.43165 0.675071 5.74335
lowerneck -14.3578 1.95175 1.73948
upperneck 41.7785 5.93765 -8.09908
head 18.5496 1.56395 -3.02485
rclavicle 8.54774e-015 3.33958e-014
rhumerus -25.9933 0.175616 -81.9331
rradius 28.3056
rwrist -9.71532
rhand -18.9923 8.29263
rfingers 7.12502
rthumb 7.3126 -21.561
lclavicle 8.54774e-015 3.33958e-014
lhumerus -29.7943 -8.73258 90.2887
lradius 41.0455
lwrist 5.94201
lhand -11.779 33.2224
lfingers 7.12502
lthumb 14.27 62.7121
rfemur -13.7309 1.12939 26.4824
rtibia 25.7148
rfoot -16.3364 -5.88128
rtoes 1.9718
lfemur -28.7817 9.13146 -10.6499
ltibia 51.4921
lfoot -5.52992 -11.6935
ltoes -20.9831
133
root 0.00563769 18.0222 -7.96088 10.2555 -5.61067 -3.64316
lowerback -0.266166 1.20956 -2.0202
upperback 2.4469 1.54884 4.45704
thorax 2.4951 0.678324 5.79265
lowerneck -14.41 1.9351 1.59817
upperneck 41.6669 5.95193 -8.09775
head 18.4918 1.54803 -2.988
rclavicle 8.54774e-015 2.54444e-014
rhumerus -25.8175 0.470863 -81.8197
rradius 28.3801
rwrist -9.74927
rhand -18.7922 8.16692
rfingers 7.12502
rthumb 7.50577 -21.6799
lclavicle 8.54774e-015 2.54444e-014
lhumerus -29.6964 -9.34599 90.6106
lradius 41.5169
lwrist 5.62219
lhand -12.1851 32.949
lfingers 7.12502
lthumb 13.8786 62.4659
rfemur -13.5827 0.985819 26.6498
rtibia 25.5937
rfoot -16.3264 -5.82567
rtoes 1.89654
lfemur -29.3876 9.21132 -10.3377
ltibia 52.2874
lfoot -4.91393 -11.9202
ltoes -19.248
134
root -0.00287924 18.0165 -7.94794 10.2497 -5.50763 -3.76954
lowerback -0.263883 1.2088 -1.90439
upperback 2.64371 1.53779 4.56154
thorax 2.69934 0.665823 5.84115
lowerneck -14.5527 1.97017 1.48239
upperneck 41.5562 6.04064 -8.09544
head 18.468 1.5643 -2.94134
rclavicle 7.7526e-015 -6.36111e-015
rhumerus -25.4564 0.849669 -81.7052
rradius 28.2995
rwrist -9.83731
rhand -18.7045 8.12075
rfingers 7.12502
rthumb 7.59041 -21.7231
lclavicle 7.7526e-015 -6.36111e-015
lhumerus -29.5603 -9.93179 90.9254
lradius 42.0444
lwrist 5.37874
lhand -12.5134 32.5138
lfingers 7.12502
lthumb 13.5622 62.0521
rfemur -13.4769 0.86708 26.8337
rtibia 25.5233
rfoot -16.3622 -5.80131
rtoes 1.7847
lfemur -29.981 9.22528 -10.024
ltibia 52.9733
lfoot -4.74546 -12.1648
ltoes -17.6384
135
root -0.00913964 18.0108 -7.9375 10.2171 -5.38433 -3.89645
lowerback -0.159633 1.23559 -1.71761
upperback 2.7908 1.56541 4.59688
thorax 2.7934 0.678842 5.77267
lowerneck -14.6296 1.95759 1.49988
upperneck 41.5201 6.01465 -8.09491
head 18.4651 1.5567 -2.94682
rclavicle -1.39149e-015 -5.56597e-015
rhumerus -25.1977 1.04607 -81.6808
rradius 28.2483
rwrist -9.97006
rhand -18.7698 8.12219
rfingers 7.12502
rthumb 7.52739 -21.7239
lclavicle -1.39149e-015 -5.56597e-015
lhumerus -29.4676 -10.6596 91.1749
lradius 42.4393
lwrist 5.22769
lhand -12.9588 31.7958
lfingers 7.12502
lthumb 13.1329 61.3622
rfemur -13.3745 0.792181 27.0155
rtibia 25.5082
rfoot -16.4522 -5.84263
rtoes 1.58496
lfemur -30.5396 9.19021 -9.74077
ltibia 53.5317
lfoot -4.87336 -12.3269
ltoes -16.8314
136
root -0.0169495 18.0097 -7.92541 10.2048 -5.3003 -3.89878
lowerback -0.0854051 1.27303 -1.69241
upperback 2.91776 1.61194 4.58647
thorax 2.87882 0.698862 5.74916
lowerneck -14.675 1.91188 1.54285
upperneck 41.4986 5.93248 -8.10496
head 18.4585 1.52978 -2.97391
rclavicle -6.95746e-015 -6.2816e-014
rhumerus -25.0034 1.04046 -81.636
rradius 28.2638
rwrist -9.75052
rhand -18.8582 8.30549
rfingers 7.12502
rthumb 7.44199 -21.5436
lclavicle -6.95746e-015 -6.2816e-014
lhumerus -29.2973 -11.4927 91.3941
lradius 42.6891
lwrist 5.06994
lhand -13.6275 31.0373
lfingers 7.12502
lthumb 12.4883 60.6441
rfemur -13.2992 0.754852 27.0563
rtibia 25.488
rfoot -16.5433 -5.89091
rtoes 1.34271
lfemur -31.0841 9.20036 -9.65274
ltibia 53.9335
lfoot -5.36069 -12.2402
ltoes -17.659
137
root -0.027361 18.0127 -7.90938 10.2273 -5.25822 -3.86607
lowerback -0.0737836 1.28453 -1.81339
upperback 3.05343 1.62486 4.62002
thorax 3.008 0.696544 5.85739
lowerneck -14.7396 1.91891 1.55666
upperneck 41.4432 5.95866 -8.15925
head 18.4491 1.53522 -2.9942
rclavicle -1.90833e-014 -2.70347e-014
rhumerus -24.7357 1.05295 -81.4714
rradius 28.2298
rwrist -9.00889
rhand -18.6471 8.51816
rfingers 7.12502
rthumb 7.64579 -21.3236
lclavicle -1.90833e-014 -2.70347e-014
lhumerus -29.0873 -12.2695 91.6303
lradius 42.967
lwrist 4.64492
lhand -14.0706 30.7016
lfingers 7.12502
lthumb 12.061 60.3341
rfemur -13.2452 0.776702 27.0631
rtibia 25.4493
rfoot -16.6223 -5.92358
rtoes 1.46571
lfemur -31.6091 9.29453 -9.61686
ltibia 54.1664
lfoot -5.97483 -12.0879
ltoes -18.9471
138
root -0.0357873 18.0158 -7.89492 10.242 -5.20216 -3.87354
lowerback 0.0373601 1.29618 -1.8708
upperback 3.15117 1.63805 4.66278
thorax 3.04288 0.698443 5.93497
lowerneck -14.7212 1.9102 1.54762
upperneck 41.3759 5.98012 -8.24744
head 18.4107 1.53274 -3.02662
rclavicle -1.2921e-014 -1.98785e-014
rhumerus -24.471 1.11245 -81.298
rradius 28.1557
rwrist -8.28273
rhand -18.3103 8.4086
rfingers 7.12502
rthumb 7.97083 -21.4211
lclavicle -1.2921e-014 -1.98785e-014
lhumerus -28.989 -13.0185 91.8849
lradius 43.3866
lwrist 3.96925
lhand -13.9779 30.8877
lfingers 7.12502
lthumb 12.1504 60.5148
rfemur -13.1906 0.804602 27.1106
rtibia 25.4086
rfoot -16.6275 -5.95474
rtoes 2.15312
lfemur -32.1062 9.39006 -9.53942
ltibia 54.2452
lfoot -6.41535 -11.8648
ltoes -19.2537
139
root -0.0403877 18.0165 -7.88111 10.2423 -5.11189 -3.86552
lowerback 0.229222 1.30647 -1.89733
upperback 3.21386 1.65036 4.69737
thorax 2.99675 0.703282 5.98276
lowerneck -14.6464 1.87611 1.50024
upperneck 41.2691 5.9654 -8.32387
head 18.3272 1.51315 -3.0504
rclavicle -2.52457e-014 3.10104e-014
rhumerus -24.3083 1.26923 -81.1796
rradius 28.0937
rwrist -8.07428
rhand -18.3127 8.36
rfingers 7.12502
rthumb 7.96856 -21.4698
lclavicle -2.52457e-014 3.10104e-014
lhumerus -28.9653 -13.699 92.1543
lradius 43.8098
lwrist 3.37062
lhand -13.9224 30.8563
lfingers 7.12502
lthumb 12.2039 60.4803
rfemur -13.1208 0.8038 27.1313
rtibia 25.3579
rfoot -16.5842 -5.99087
rtoes 2.89298
lfemur -32.5376 9.438 -9.50015
ltibia 54.1773
lfoot -6.82678 -11.4274
ltoes -19.1531
140
root -0.0427643 18.0152 -7.86704 10.2711 -5.05322 -3.83218
lowerback 0.419749 1.32898 -1.95191
upperback 3.24738 1.68056 4.71837
thorax 2.91859 0.717854 6.03173
lowerneck -14.5818 1.87036 1.51101
upperneck 41.181 5.9702 -8.38497
head 18.2607 1.51236 -3.07483
rclavicle -2.48481e-014 -3.89618e-014
rhumerus -24.2166 1.40209 -81.0609
rradius 28.0002
rwrist -7.99053
rhand -18.367 8.70429
rfingers 7.12502
rthumb 7.91608 -21.1275
lclavicle -2.48481e-014 -3.89618e-014
lhumerus -28.9692 -14.3689 92.4261
lradius 44.1421
lwrist 2.90284
lhand -14.2642 30.3191
lfingers 7.12502
lthumb 11.8744 59.9624
rfemur -13.0891 0.880892 27.1099
rtibia 25.3131
rfoot -16.5951 -6.07686
rtoes 3.44839
lfemur -32.9462 9.4583 -9.49586
ltibia 53.9667
lfoot -7.17038 -10.8598
ltoes -18.7344
